<svg id="レイヤー_1" data-name="レイヤー 1" xmlns="http://www.w3.org/2000/svg" viewBox="0 0 830.7 83.16"><defs><style>.cls-1{fill:#333;}.cls-2{fill:#c70067;}</style></defs><polygon class="cls-1" points="797.58 31.03 797.58 5.88 830.7 5.88 830.7 1.08 792.3 1.08 792.3 31.03 797.58 31.03"/><polygon class="cls-1" points="797.58 52.03 792.3 52.03 792.3 81.12 830.7 81.12 830.7 76.32 797.58 76.32 797.58 52.03"/><rect class="cls-1" x="765.42" y="1.08" width="5.28" height="29.95"/><polygon class="cls-1" points="703.5 31.03 703.5 12.84 720.89 31.03 727.65 31.03 698.23 0.24 698.23 31.03 703.5 31.03"/><rect class="cls-1" x="698.23" y="52.03" width="5.28" height="29.09"/><polygon class="cls-2" points="765.42 52.03 765.42 70.56 747.72 52.03 740.96 52.03 770.7 83.16 770.7 52.03 765.42 52.03"/><rect class="cls-1" x="671.35" y="1.08" width="5.28" height="29.95"/><rect class="cls-1" x="671.35" y="52.03" width="5.28" height="29.09"/><rect class="cls-1" x="631.27" y="1.08" width="5.28" height="29.95"/><polygon class="cls-1" points="636.54 76.32 636.54 52.03 631.26 52.03 631.26 81.12 658.86 81.12 658.86 76.32 636.54 76.32"/><polygon class="cls-2" points="587.83 31.03 587.83 5.88 614.95 5.88 614.95 1.08 582.55 1.08 582.55 31.03 587.83 31.03"/><rect class="cls-1" x="582.55" y="52.03" width="5.28" height="29.09"/><polygon class="cls-1" points="539.11 31.03 539.11 5.88 566.23 5.88 566.23 1.08 533.83 1.08 533.83 31.03 539.11 31.03"/><rect class="cls-1" x="533.83" y="52.03" width="5.28" height="29.09"/><path class="cls-1" d="M450.76,44a36,36,0,0,1,69.29,0h5.63c-4.46-18-20.48-31-40.28-31S449.59,26,445.13,44Z" transform="translate(-10.38 -12.97)"/><path class="cls-1" d="M519.9,65c-4.34,15-17.66,25.61-34.5,25.61S455.25,80,450.91,65h-5.65c4.61,17.68,20.44,30.41,40.14,30.41S520.91,82.68,525.54,65Z" transform="translate(-10.38 -12.97)"/><polygon class="cls-1" points="359.47 31.03 359.47 5.88 392.59 5.88 392.59 1.08 354.19 1.08 354.19 31.03 359.47 31.03"/><polygon class="cls-2" points="359.47 52.03 354.19 52.03 354.19 81.12 392.59 81.12 392.59 76.32 359.47 76.32 359.47 52.03"/><rect class="cls-1" x="327.31" y="1.08" width="5.28" height="29.95"/><polygon class="cls-1" points="265.39 31.03 265.39 12.84 282.78 31.03 289.54 31.03 260.11 0.24 260.11 31.03 265.39 31.03"/><rect class="cls-1" x="260.11" y="52.03" width="5.28" height="29.09"/><polygon class="cls-1" points="327.31 52.03 327.31 70.56 309.61 52.03 302.85 52.03 332.59 83.16 332.59 52.03 327.31 52.03"/><rect class="cls-1" x="233.23" y="1.08" width="5.28" height="29.95"/><rect class="cls-1" x="233.23" y="52.03" width="5.28" height="29.09"/><polygon class="cls-1" points="198.43 76.32 198.43 52.03 193.15 52.03 193.15 81.12 220.75 81.12 220.75 76.32 198.43 76.32"/><rect class="cls-1" x="193.15" y="1.08" width="5.28" height="29.95"/><path class="cls-2" d="M16,44A35.21,35.21,0,0,1,50.65,17.77,35.21,35.21,0,0,1,85.29,44h5.63C86.46,26,70.45,13,50.65,13S14.84,26,10.38,44Z" transform="translate(-10.38 -12.97)"/><path class="cls-1" d="M85.14,65C80.8,80,67.49,90.61,50.65,90.61S20.5,80,16.16,65H10.5c4.62,17.68,20.44,30.41,40.15,30.41S86.15,82.68,90.79,65Z" transform="translate(-10.38 -12.97)"/><polygon class="cls-2" points="166.27 52.03 166.27 70.56 148.57 52.03 141.81 52.03 171.55 83.16 171.55 52.03 166.27 52.03"/><polygon class="cls-1" points="104.35 31.03 104.35 12.84 121.74 31.03 128.5 31.03 99.07 0.24 99.07 31.03 104.35 31.03"/><rect class="cls-1" x="166.27" y="1.08" width="5.28" height="29.95"/><rect class="cls-1" x="99.07" y="52.03" width="5.28" height="29.09"/></svg>